<svg xmlns="http://www.w3.org/2000/svg" xml:space="preserve" width="240" height="236.26297" fill="none"><path fill="#fff" d="m229.39 104.251973-98.78-99.8329c-5.83-5.8921-15.38-5.8921-21.21 0l-98.79 99.8329c-5.83 5.892-10.61 17.545-10.61 25.883v90.959c0 8.337 6.75 15.159 15 15.159h92.27l-40.63-41.063c-2.09.728-4.32 1.142-6.64 1.142-11.3 0-20.5-9.298-20.5-20.718s9.2-20.718 20.5-20.718 20.5 9.298 20.5 20.718c0 2.355-.41 4.609-1.13 6.721l31.63 31.967v-117.115c-6.8-3.375-11.5-10.43-11.5-18.586 0-11.42 9.2-20.718 20.5-20.718s20.5 9.298 20.5 20.718c0 8.156-4.7 15.211-11.5 18.586v82.136l31.46-31.795c-.62-1.981-.96-4.083-.96-6.266 0-11.421 9.2-20.719 20.5-20.719s20.5 9.298 20.5 20.719c0 11.42-9.2 20.718-20.5 20.718-2.5 0-4.88-.475-7.09-1.303l-43.91 44.377v31.209h96c8.25 0 15-6.821 15-15.159v-90.959c0-8.338-4.77-19.981-10.61-25.883z"/></svg>
