<svg xmlns="http://www.w3.org/2000/svg" xml:space="preserve" viewBox="0 0 2048 2048"><path fill="#fff" d="M1210.6 305.91c-59.415.013-118.83.094-178.24.094-65.498 0-131-.125-196.49.111-12.204.044-24.176 2.152-33.697 11.102-9.045 8.502-18.58 16.524-27.16 25.467-11.421 11.903-18.868 26.405-25.02 41.635-4.902 12.136-5.818 24.885-5.9 37.643-.259 39.997-.094 79.998-.104 120 0 1.662.135 3.38-.23 4.973-.576 2.508-1.81 3.955-4.553 1.88-3.308-2.5-6.764-4.807-10.13-7.234-19.116-13.788-38.177-27.653-57.362-41.346-6.478-4.623-9.82-4.646-15.854-.105-20.148 15.163-40.165 30.498-60.271 45.717-3.027 2.291-6.263 4.31-10.156 6.97-.235-2.705-.466-4-.441-5.29.314-16.461.78-32.92.98-49.383.415-34.29.686-68.582 1.047-102.87.015-1.478.277-2.964.539-4.426 2.13-11.907 6.45-22.935 13.057-33.098 9.265-14.253 19.281-27.838 32.654-38.623 5.05-4.073 9.91-8.382 15.482-13.115h-6.268c-27.166 0-54.333.07-81.498-.022-20.878-.07-40.066 5.223-57.104 17.521-25.58 18.467-39.665 43.743-39.69 75.037-.305 353.65-.194 707.31-.194 1061.5 0 70.998-.027 141.5.06 211.99.006 4.609.625 9.268 1.44 13.816 3.755 20.972 13.354 38.805 29.08 53.275 16.952 15.6 37.14 24.658 59.939 24.72 242.95.648 485.9.88 728.85 1.185 62.83.079 125.66.004 188.49.014 20.336.002 39.088-5.236 55.732-17.12 25.985-18.55 40.2-44.062 40.223-75.778.27-392.49.178-784.97.137-1177.5 0-4.127-.483-8.265-.91-12.38-2.551-24.512-13.819-44.551-32.11-60.612-6.29-5.524-13.06-10.842-21.662-12.76-5.212-1.163-8.775 1.292-9.238 6.58-.145 1.654-.04 3.331-.04 4.998v1205.5c0 1.833.106 3.675-.038 5.498-.638 8.106-8.253 13.306-16.057 11.022-6.323-1.852-8.904-6.152-8.904-14.861 0-413.65.001-827.3-.031-1241 0-2.798-.143-5.677-.79-8.381-2.81-11.753-7.505-22.647-14.697-32.486-18.498-25.311-43.543-39.4-74.63-39.543-59.414-.273-118.83-.328-178.24-.315zM980.07 664.3c61.58 0 259.52 360.13 229.62 420.13-29.9 60-429.01 60.7-459.24 0-30.23-60.7 168.03-420.13 229.62-420.13zm.03 92.18c-40.35 0-170.27 235.51-150.45 275.28 19.82 39.77 281.31 39.33 300.9 0 19.59-39.34-110.1-275.28-150.45-275.28zm-.03 86.141c20.44.01 86.119 119.51 76.199 139.43-9.92 19.92-142.36 20.14-152.4 0-10.04-20.14 55.761-139.43 76.201-139.43z"/></svg>