<svg width="35" height="33" viewBox="0 0 35 33" fill="none" xmlns="http://www.w3.org/2000/svg">
	<script xmlns="" />
	<path
		d="M0.0146346 0.593029L0.764804 3.57722C0.809995 3.75303 0.945568 3.88826 1.12633 3.92432L14.765 6.91753C15.1897 7.01219 15.5106 7.37733 15.5377 7.81459L16.6585 23.9031C16.6675 24.0158 16.7127 24.1195 16.7895 24.2006L17.133 24.5567C17.2233 24.6514 17.3454 24.7055 17.4764 24.7055C17.6075 24.7055 17.7295 24.6514 17.8199 24.5567L18.1633 24.2006C18.2401 24.1195 18.2853 24.0158 18.2944 23.9031L19.4151 7.81459C19.4467 7.38184 19.7631 7.01219 20.1879 6.91753L33.8265 3.92432C34.0027 3.88375 34.1428 3.75303 34.188 3.57722L34.9382 0.593029C34.9789 0.430747 34.9382 0.268465 34.8162 0.146753C34.6987 0.0250412 34.536 -0.0245451 34.3733 0.0115177L17.6843 3.66738C17.5442 3.69893 17.3996 3.69893 17.2595 3.66738L0.579521 0.0160255C0.543368 0.00250199 0.511735 0.00250199 0.475582 0.00250199C0.349047 0.00250199 0.227032 0.0520882 0.13665 0.146753C0.0191537 0.268465 -0.0260373 0.430747 0.0146346 0.593029Z"
		fill="#fff" />
	<path
		d="M23.0349 32.301L23.8257 32.0936C23.9658 32.0576 24.0743 31.9494 24.0969 31.8096L27.7528 14.0397C27.8116 13.7062 28.0692 13.4357 28.4036 13.3545L31.7567 12.5476C31.8878 12.5161 31.9872 12.4169 32.0188 12.2862L32.8142 9.11267C32.8458 8.99095 32.8142 8.86474 32.7193 8.77458C32.6515 8.70696 32.5611 8.6709 32.4708 8.6709C32.4436 8.6709 32.412 8.6709 32.3849 8.67991L24.3319 10.6228C24.1782 10.6589 24.0698 10.7896 24.0607 10.9429L22.5965 31.9268C22.5875 32.0395 22.6327 32.1477 22.7231 32.2244C22.8089 32.2965 22.9264 32.3235 23.0394 32.2965L23.0349 32.301Z"
		fill="#fff" />
	<path
		d="M10.996 10.6274L2.94297 8.68455C2.91586 8.67554 2.88422 8.67554 2.85711 8.67554C2.76221 8.67554 2.67635 8.7116 2.60856 8.77922C2.51818 8.86937 2.48654 8.99109 2.51366 9.11731L3.30902 12.2908C3.34065 12.4216 3.44007 12.5207 3.57113 12.5523L6.92429 13.3592C7.25871 13.4403 7.51629 13.7108 7.57504 14.0489L11.231 31.8053C11.2581 31.9495 11.362 32.0622 11.4976 32.0938L12.2975 32.3011C12.406 32.3282 12.5189 32.3011 12.6048 32.2245C12.6907 32.1524 12.7404 32.0442 12.7313 31.927L11.2671 10.943C11.2581 10.7852 11.1451 10.659 10.996 10.6229V10.6274Z"
		fill="#fff" />
</svg>
